# xmcd
#
# Track frame offsets:
#	150
#	17692
#	39595
#	56847
#	75930
#	92517
#	113537
#	134895
#	159472
#	176282
#	197632
#
# Disc length: 2889 seconds
#
# Revision: 2
# Processed by: cddbd v1.5.2PL0 Copyright (c) Steve Scherf et al.
# Submitted via: EasyCDDAExtractor 2010.6.0.0
#
DISCID=820b470b
DTITLE=김경호 - kim kyungho-5th
DYEAR=2000
DGENRE=°¡¿ä
TTITLE0=탈출
TTITLE1=와인
TTITLE2=Blood
TTITLE3=Delete...
TTITLE4=Dear Freddie
TTITLE5=아스파라거스(ASPARAGUS)
TTITLE6=Masquerade
TTITLE7=그때가 아닌 지금
TTITLE8=나의 그리움은 너의 뒤에 ...
TTITLE9=Good-bye to my Love
TTITLE10=Tragedy
EXTD=YEAR: 2000
EXTT0=
EXTT1=
EXTT2=
EXTT3=
EXTT4=
EXTT5=
EXTT6=
EXTT7=
EXTT8=
EXTT9=
EXTT10=
PLAYORDER=
